# xmcd
#
# Track frame offsets: 
#        150
#        15269
#        30033
#        42752
#        56429
#        68791
#        90502
#        102440
#        119982
#        136007
#        148597
#        165501
#        180459
#
# Disc length: 2643 seconds
#
# Revision: 3
# Processed by: cddbd v1.5.2PL0 Copyright (c) Steve Scherf et al.
# Submitted via: ExactAudioCopyFreeDBPlugin 1.0
#
DISCID=9c0a510d
DTITLE=Anson Funderburgh And The Rockets - Which Way Is Texas?
DYEAR=2003
DGENRE=Blues
TTITLE0=Can We Get Together
TTITLE1=One Woman I Need
TTITLE2=Tryin' To Get Back On My Feet
TTITLE3=Rambling Woman
TTITLE4=Some Sunny Day
TTITLE5=Going My Way?
TTITLE6=The Last Tune
TTITLE7=Don't Turn This Child Away From Heaven
TTITLE8=Hoodoo Party
TTITLE9=Toss And Turn
TTITLE10=Jungle
TTITLE11=I Need To Know
TTITLE12=Crutch And Cane
EXTD=YEAR: 2003
EXTT0=
EXTT1=
EXTT2=
EXTT3=
EXTT4=
EXTT5=
EXTT6=
EXTT7=
EXTT8=
EXTT9=
EXTT10=
EXTT11=
EXTT12=
PLAYORDER=
